# File created by Blade
# Date/Time:  Tue Sep 23 19:06:47 2014
# Frame Rate: 120.000 fps
#------------------------------------------------------
:FULLY-SPECIFIED
:DEGREES
871
root -4.788899 32.987204 5.732882 40.038581 10.543299 0.746368
Spine -30.425162 1.844902 8.101359
Head -4.846123 -14.142950 -4.103502
LeftShoulder -16.968092 42.639847 20.414010
LeftArm 56.817405 -25.559256 -79.265456
LeftForeArm 100.120523 -0.000000 24.377164
LeftHand -15.507252 -0.000000 59.595391
LeftHandThumb1 -26.253704 0.000000 33.147579
RightShoulder -10.240511 -47.540837 -16.644570
RightArm 52.466580 16.256880 88.016546
RightForeArm 46.304306 0.000000 15.958272
RightHand 17.977792 0.000000 -15.882621
RightHandThumb1 -24.326973 -0.000000 -32.862282
LeftUpLeg -32.875695 8.801816 6.482030
LeftLeg 9.224650 -0.000000 -0.000000
LeftFoot -7.554122 4.084100 -3.103321
LeftToeBase -3.771302 -0.000000 0.000000
RightUpLeg -45.660422 -10.293347 6.712382
RightLeg 17.746603 -0.000000 -0.000000
RightFoot -2.856304 -13.156252 0.870038
RightToeBase -1.954492 -0.000000 0.000000
872
root -4.766726 33.003025 5.738949 39.797002 10.857907 0.761404
Spine -30.150957 1.788649 8.015415
Head -4.824728 -14.612074 -3.651979
LeftShoulder -16.853770 42.800838 20.281317
LeftArm 56.577652 -24.478025 -79.559386
LeftForeArm 99.929366 -0.000000 24.804644
LeftHand -14.967734 0.000000 59.281345
LeftHandThumb1 -26.253704 0.000000 33.147579
RightShoulder -10.320227 -47.737531 -16.611270
RightArm 52.209935 15.692498 88.111691
RightForeArm 45.897608 -0.000000 16.119505
RightHand 17.951192 0.000000 -16.195758
RightHandThumb1 -24.326973 -0.000000 -32.862282
LeftUpLeg -33.062931 8.938404 6.475370
LeftLeg 9.136243 -0.000000 -0.000000
LeftFoot -7.434380 4.175900 -3.040514
LeftToeBase -3.896643 -0.000000 0.000000
RightUpLeg -45.199918 -10.520241 6.763694
RightLeg 17.372392 -0.000000 -0.000000
RightFoot -2.731763 -13.226230 0.979265
RightToeBase -1.884247 -0.000000 0.000000
873
root -4.740755 33.018687 5.744162 39.590820 11.198638 0.740608
Spine -29.949816 1.719193 8.004269
Head -4.675124 -15.068332 -3.270823
LeftShoulder -16.792532 43.054640 20.041826
LeftArm 56.431405 -23.312912 -79.615756
LeftForeArm 100.053111 -0.000000 24.978790
LeftHand -14.881452 -0.000000 59.104092
LeftHandThumb1 -26.253704 0.000000 33.147579
RightShoulder -10.424821 -47.903523 -16.630094
RightArm 52.023589 15.065679 88.256089
RightForeArm 45.645556 -0.000000 16.112283
RightHand 17.940371 -0.000000 -16.124406
RightHandThumb1 -24.326973 -0.000000 -32.862282
LeftUpLeg -33.288911 9.070907 6.509096
LeftLeg 9.048704 -0.000000 -0.000000
LeftFoot -7.252429 4.265614 -2.675037
LeftToeBase -4.038659 -0.000000 0.000000
RightUpLeg -44.764057 -10.772420 6.882441
RightLeg 16.955968 -0.000000 -0.000000
RightFoot -2.497532 -13.294585 0.906415
RightToeBase -1.887157 -0.000000 0.000000
874
root -4.711525 33.033210 5.749517 39.404455 11.492856 0.734842
Spine -29.771000 1.589224 7.971425
Head -4.480953 -15.476671 -2.827758
LeftShoulder -16.810204 43.313697 19.769406
LeftArm 56.194515 -22.069030 -79.492709
LeftForeArm 99.982943 -0.000000 25.154474
LeftHand -14.737397 -0.000000 58.841663
LeftHandThumb1 -26.253704 0.000000 33.147579
RightShoulder -10.475507 -48.016041 -16.659110
RightArm 51.847847 14.421293 88.387320
RightForeArm 45.532639 -0.000000 16.067392
RightHand 17.979978 0.000000 -16.116423
RightHandThumb1 -24.326973 -0.000000 -32.862282
LeftUpLeg -33.498066 9.212166 6.518217
LeftLeg 8.972853 -0.000000 -0.000000
LeftFoot -7.046538 4.043947 -2.650713
LeftToeBase -4.859179 -0.000000 0.000000
RightUpLeg -44.351241 -11.013358 6.959391
RightLeg 16.555643 -0.000000 -0.000000
RightFoot -2.324614 -13.309813 0.931044
RightToeBase -1.869093 -0.000000 0.000000
875
root -4.677543 33.044631 5.753731 39.200368 11.782233 0.692037
Spine -29.593875 1.521703 7.947610
Head -4.208856 -15.974662 -2.432242
LeftShoulder -16.713903 43.541622 19.574332
LeftArm 55.952717 -20.814380 -79.367499
LeftForeArm 99.682185 -0.000000 25.280511
LeftHand -14.321332 -0.000000 58.669618
LeftHandThumb1 -26.253704 0.000000 33.147579
RightShoulder -10.657617 -48.091860 -16.644598
RightArm 51.681200 13.707525 88.509937
RightForeArm 45.513348 0.000000 15.910142
RightHand 17.945758 -0.000000 -15.666098
RightHandThumb1 -24.326973 -0.000000 -32.862282
LeftUpLeg -33.683196 9.341916 6.581476
LeftLeg 8.928755 -0.000000 -0.000000
LeftFoot -6.822387 3.814181 -2.238614
LeftToeBase -5.397099 -0.000000 0.000000
RightUpLeg -43.905581 -11.237882 7.055122
RightLeg 16.107013 -0.000000 -0.000000
RightFoot -2.128853 -13.333635 0.914281
RightToeBase -1.840140 -0.000000 0.000000
876
root -4.643095 33.056460 5.754433 39.056234 12.046256 0.655887
Spine -29.480694 1.374594 7.920168
Head -3.854358 -16.357342 -1.953444
LeftShoulder -16.709494 43.672313 19.368065
LeftArm 55.599867 -19.526098 -79.155657
LeftForeArm 99.353498 -0.000000 25.366961
LeftHand -13.802310 -0.000000 58.353584
LeftHandThumb1 -26.253704 0.000000 33.147579
RightShoulder -10.744224 -48.153374 -16.647481
RightArm 51.563701 13.002349 88.618658
RightForeArm 45.587438 -0.000000 15.719729
RightHand 17.992181 -0.000000 -15.587802
RightHandThumb1 -24.326973 -0.000000 -32.862282
LeftUpLeg -33.908407 9.413798 6.674014
LeftLeg 8.903829 -0.000000 -0.000000
LeftFoot -6.629559 3.561743 -2.069245
LeftToeBase -6.162847 -0.000000 0.000000
RightUpLeg -43.555868 -11.463280 7.142627
RightLeg 15.719399 -0.000000 -0.000000
RightFoot -1.973122 -13.279177 0.990764
RightToeBase -1.795277 -0.000000 0.000000
877
root -4.604791 33.066054 5.754731 38.889887 12.301140 0.594299
Spine -29.363494 1.246383 7.905877
Head -3.393072 -16.795833 -1.510013
LeftShoulder -16.685611 43.862877 19.154757
LeftArm 55.367795 -18.216419 -78.963325
LeftForeArm 99.587019 0.000000 25.274435
LeftHand -14.062395 -0.000000 58.354603
LeftHandThumb1 -26.253704 0.000000 33.147579
RightShoulder -10.857513 -48.183964 -16.633248
RightArm 51.461117 12.321262 88.749496
RightForeArm 45.785256 -0.000000 15.462770
RightHand 17.865194 0.000000 -15.324017
RightHandThumb1 -24.326973 -0.000000 -32.862282
LeftUpLeg -34.184495 9.603071 6.726262
LeftLeg 9.040286 -0.000000 -0.000000
LeftFoot -6.385928 3.102675 -1.746014
LeftToeBase -6.710160 -0.000000 0.000000
RightUpLeg -43.161424 -11.635599 7.211320
RightLeg 15.287486 -0.000000 -0.000000
RightFoot -1.788234 -13.297167 1.017120
RightToeBase -1.721046 -0.000000 0.000000
878
root -4.561510 33.073861 5.752129 38.675472 12.526958 0.517583
Spine -29.207738 1.151191 7.884733
Head -2.818744 -17.268789 -1.118179
LeftShoulder -16.529990 44.017679 19.020513
LeftArm 55.067373 -17.007506 -78.930551
LeftForeArm 99.362618 0.000000 25.295143
LeftHand -13.738913 -0.000000 58.087758
LeftHandThumb1 -26.253704 0.000000 33.147579
RightShoulder -10.975829 -48.173003 -16.612207
RightArm 51.328739 11.624429 88.835947
RightForeArm 46.192796 0.000000 15.161978
RightHand 17.938760 -0.000000 -15.063067
RightHandThumb1 -24.326973 -0.000000 -32.862282
LeftUpLeg -34.272212 9.406641 7.019942
LeftLeg 9.030604 -0.000000 -0.000000
LeftFoot -6.076992 2.980294 -1.512690
LeftToeBase -7.297277 -0.000000 0.000000
RightUpLeg -42.775964 -11.839135 7.297360
RightLeg 14.940118 -0.000000 -0.000000
RightFoot -1.609880 -13.270039 1.036379
RightToeBase -1.719631 -0.000000 0.000000
879
root -4.518070 33.078976 5.746704 38.463489 12.746104 0.425923
Spine -29.057315 0.954472 7.889604
Head -2.184060 -17.685121 -0.638346
LeftShoulder -16.448124 44.139837 18.915758
LeftArm 54.706336 -15.817891 -79.074146
LeftForeArm 98.995836 -0.000000 25.313701
LeftHand -13.212954 -0.000000 57.904348
LeftHandThumb1 -26.253704 0.000000 33.147579
RightShoulder -10.954134 -48.202149 -16.647449
RightArm 51.266755 10.965744 88.958008
RightForeArm 46.582150 -0.000000 14.882227
RightHand 17.885400 -0.000000 -14.521097
RightHandThumb1 -24.326973 -0.000000 -32.862282
LeftUpLeg -34.370976 9.108110 7.401811
LeftLeg 9.084205 -0.000000 -0.000000
LeftFoot -5.641708 2.810238 -1.282131
LeftToeBase -8.220952 -0.000000 0.000000
RightUpLeg -42.386703 -11.978147 7.353701
RightLeg 14.581915 -0.000000 -0.000000
RightFoot -1.433894 -13.292639 1.048336
RightToeBase -1.679900 -0.000000 0.000000
